<?xml version="1.0" encoding="UTF-8"?>
<svg width="29px" height="29px" viewBox="0 0 29 29" version="1.1" xmlns="http://www.w3.org/2000/svg" xmlns:xlink="http://www.w3.org/1999/xlink">
    <!-- Generator: sketchtool 60 (101010) - https://sketch.com -->
    <title>DC2D1799-BB8F-4B9F-A62D-0208B31131D1@3x</title>
    <desc>Created with sketchtool.</desc>
    <defs>
        <circle id="path-1" cx="14.5" cy="14.5" r="14.5"></circle>
    </defs>
    <g id="miPOS---Cajero" stroke="none" stroke-width="1" fill="none" fill-rule="evenodd">
        <g id="02.1-Ordenes-Start" transform="translate(-1116.000000, -26.000000)">
            <g id="Header/Cajero">
                <g id="options-right">
                    <g transform="translate(1116.000000, 14.000000)">
                        <g id="Avatar/Contain" transform="translate(0.000000, 12.000000)">
                            <g id="Icons/User-Avatar/Icon">
                                <g>
                                    <g id="user-icon">
                                        <mask id="mask-2" fill="white">
                                            <use xlink:href="#path-1"></use>
                                        </mask>
                                        <use id="Mask" fill="#6F57D8" xlink:href="#path-1"></use>
                                        <g id="user" mask="url(#mask-2)" fill="#FFFFFF" fill-rule="nonzero">
                                            <g transform="translate(1.000000, 5.000000)" id="Shape">
                                                <path d="M13.4232954,14.0625 C15.3551631,14.0625 17.0277854,13.3695982 18.3948369,12.0025035 C19.7614428,10.6356315 20.4545455,8.9631789 20.4545455,7.03102729 C20.4545455,5.09954387 19.7616655,3.4268685 18.3946142,2.05955112 C17.0275627,0.692901873 15.3549404,0 13.4232954,0 C11.4912051,0 9.8188054,0.692901873 8.45197674,2.05977383 C7.08514808,3.42664579 6.39204545,5.09932115 6.39204545,7.03102729 C6.39204545,8.9631789 7.08514808,10.6358542 8.45197674,12.0027262 C9.81925087,13.3693754 11.4918732,14.0625 13.4232954,14.0625 Z M9.66178827,3.26940098 C10.7105738,2.22058227 11.9408754,1.71076154 13.4232954,1.71076154 C14.9054927,1.71076154 16.1360172,2.22058227 17.1850253,3.26940098 C18.2338108,4.31844234 18.7438381,5.54900573 18.7438381,7.03102729 C18.7438381,8.51349427 18.2338108,9.74383495 17.1850253,10.7928763 C16.1360172,11.8419177 14.9054927,12.3517385 13.4232954,12.3517385 C11.9413209,12.3517385 10.7110192,11.841695 9.66178827,10.7928763 C8.61278015,9.74405766 8.1027528,8.51349427 8.1027528,7.03102729 C8.1027528,5.54900573 8.61278015,4.31844234 9.66178827,3.26940098 Z"></path>
                                                <path d="M26.0182051,22.8769426 C25.9772344,22.2762197 25.894367,21.6209286 25.7723808,20.9289448 C25.6492372,20.2317866 25.4906781,19.572732 25.3008703,18.9703628 C25.1045812,18.3477656 24.8381557,17.7329304 24.5083067,17.1437327 C24.166421,16.5321904 23.7645839,15.9996781 23.3136744,15.5614845 C22.8421639,15.1030629 22.2648702,14.734491 21.5973021,14.4656476 C20.9320486,14.1982154 20.1948071,14.0627352 19.4061785,14.0627352 C19.0964676,14.0627352 18.7969415,14.1918648 18.2184904,14.5745491 C17.862485,14.8104634 17.446065,15.0833054 16.9812672,15.385078 C16.583828,15.6423963 16.0454218,15.8834851 15.3803998,16.1017587 C14.7315809,16.3150928 14.0728088,16.4232888 13.4223696,16.4232888 C12.7723933,16.4232888 12.1136212,16.3150928 11.4643394,16.1017587 C10.8000118,15.8837203 10.2613741,15.6426315 9.86462936,15.3853132 C9.40422949,15.0863631 8.98757806,14.8135211 8.6262487,14.5743139 C8.0482606,14.1916296 7.74873449,14.0625 7.43902363,14.0625 C6.65016359,14.0625 5.91315351,14.1982154 5.24813156,14.4658828 C4.5810263,14.7342558 4.00350117,15.1028277 3.53152768,15.5617197 C3.08061825,16.0001485 2.6787811,16.5324256 2.33712693,17.1437327 C2.00774081,17.7329304 1.7410839,18.3475304 1.54479478,18.970598 C1.35521837,19.5729672 1.19665937,20.2317866 1.07351573,20.9289448 C0.951297974,21.6199878 0.868662123,22.2755142 0.827691414,22.8776482 C0.78741508,23.4663754 0.767045455,24.0790938 0.767045455,24.6981628 C0.767045455,26.3074601 1.27049928,27.6102806 2.26328702,28.5711077 C3.24380671,29.5192336 4.54098148,30 6.11893301,30 L20.7276579,30 C22.3051465,30 23.6023213,29.5192336 24.5830724,28.5711077 C25.5760917,27.6109862 26.0795455,26.3076953 26.0795455,24.6979276 C26.0795455,24.0767416 26.0587129,23.4640232 26.0182051,22.8769426 L26.0182051,22.8769426 Z M23.3571913,27.2621718 C22.7092984,27.8887675 21.8491447,28.1933627 20.7274264,28.1933627 L6.11893301,28.1933627 C4.99698329,28.1933627 4.13682963,27.8887675 3.48916811,27.262407 C2.8537747,26.6478069 2.54498966,25.8088178 2.54498966,24.6981628 C2.54498966,24.1204905 2.56373896,23.5501096 2.60123762,23.0025439 C2.63781033,22.4653275 2.71257613,21.8751891 2.82345172,21.248123 C2.93293844,20.6288187 3.07228522,20.0476182 3.2380199,19.5214565 C3.39704182,19.0169341 3.61393207,18.517351 3.88290369,18.0361142 C4.13960725,17.5774574 4.43496687,17.1839534 4.76088088,16.8668922 C5.06573082,16.5702942 5.44997603,16.3275589 5.90273724,16.1455074 C6.32147191,15.9770981 6.79205653,15.8848963 7.30291749,15.871019 C7.36518372,15.9046538 7.47605931,15.9688657 7.65568237,16.0878813 C8.02117827,16.329911 8.44245916,16.6060459 8.90818286,16.9082889 C9.43316366,17.2484006 10.1095278,17.555583 10.9176001,17.8206631 C11.7437273,18.0920939 12.586289,18.2299261 13.422601,18.2299261 C14.2589131,18.2299261 15.1017063,18.0920939 15.9273706,17.8208983 C16.7361372,17.5553478 17.41227,17.2484006 17.9379451,16.9078185 C18.4145481,16.598284 18.8240238,16.3301462 19.1895197,16.0878813 C19.3691428,15.969101 19.4800184,15.9046538 19.5422846,15.871019 C20.053377,15.8848963 20.5239616,15.9770981 20.9429278,16.1455074 C21.3954576,16.3275589 21.7797027,16.5705294 22.0845527,16.8668922 C22.4104667,17.1837182 22.7058263,17.5772222 22.9625299,18.0363494 C23.231733,18.517351 23.4488547,19.0171693 23.6076452,19.5212213 C23.7736113,20.0480886 23.9131896,20.6290539 24.0224448,21.2478878 C24.1330889,21.8761299 24.2080861,22.4665035 24.2446589,23.0027792 L24.2446589,23.0032496 C24.282389,23.5486983 24.3013698,24.118844 24.3016012,24.6981628 C24.3013698,25.8090531 23.9925848,26.6478069 23.3571913,27.2621718 L23.3571913,27.2621718 Z"></path>
                                            </g>
                                        </g>
                                    </g>
                                </g>
                            </g>
                        </g>
                    </g>
                </g>
            </g>
        </g>
    </g>
</svg>