<svg xmlns="http://www.w3.org/2000/svg" xmlns:xlink="http://www.w3.org/1999/xlink" width="45" height="45" viewBox="0 0 45 45">
    <defs>
        <circle id="a" cx="22.5" cy="22.5" r="22.5"/>
    </defs>
    <g fill="none" fill-rule="evenodd">
        <mask id="b" fill="#fff">
            <use xlink:href="#a"/>
        </mask>
        <use fill="#6F57D8" xlink:href="#a"/>
        <g fill="#FFF" fill-rule="nonzero" mask="url(#b)">
            <path d="M22.381 29.58c2.998 0 5.593-1.075 7.714-3.197 2.121-2.12 3.197-4.716 3.197-7.714 0-2.997-1.076-5.593-3.197-7.715-2.121-2.12-4.717-3.195-7.714-3.195-2.998 0-5.593 1.075-7.714 3.196-2.121 2.12-3.197 4.716-3.197 7.714s1.076 5.594 3.197 7.715c2.121 2.12 4.717 3.196 7.714 3.196zm-5.837-16.748c1.628-1.628 3.537-2.419 5.837-2.419s4.21.791 5.837 2.419c1.628 1.628 2.419 3.537 2.419 5.837s-.791 4.21-2.419 5.837c-1.628 1.628-3.537 2.42-5.837 2.42s-4.209-.792-5.837-2.42c-1.628-1.627-2.419-3.537-2.419-5.837s.791-4.21 2.42-5.837zM41.925 43.257a28.896 28.896 0 0 0-.382-3.022 24.134 24.134 0 0 0-.731-3.04 15.138 15.138 0 0 0-1.23-2.834 10.667 10.667 0 0 0-1.854-2.455c-.732-.712-1.627-1.284-2.663-1.7-1.033-.416-2.177-.626-3.4-.626-.48 0-.946.2-1.843.794-.553.366-1.199.79-1.92 1.258-.617.4-1.452.773-2.484 1.112a9.722 9.722 0 0 1-3.038.499 9.729 9.729 0 0 1-3.039-.499c-1.03-.338-1.866-.712-2.482-1.112-.715-.464-1.361-.887-1.922-1.258-.897-.594-1.361-.794-1.842-.794-1.224 0-2.368.21-3.4.626-1.035.416-1.93.988-2.663 1.7-.7.68-1.324 1.506-1.854 2.455a15.165 15.165 0 0 0-1.23 2.835c-.293.934-.54 1.957-.73 3.039a28.7 28.7 0 0 0-.382 3.023 41.596 41.596 0 0 0-.094 2.825c0 2.498.781 4.52 2.322 6.01 1.521 1.471 3.534 2.217 5.983 2.217h22.668c2.448 0 4.461-.746 5.983-2.217 1.54-1.49 2.322-3.512 2.322-6.01 0-.964-.032-1.915-.095-2.826zm-4.13 6.805c-1.005.972-2.34 1.445-4.08 1.445H11.047c-1.741 0-3.076-.473-4.081-1.445-.986-.953-1.465-2.255-1.465-3.979 0-.896.029-1.781.087-2.63.057-.834.173-1.75.345-2.723.17-.961.386-1.863.643-2.68.247-.782.584-1.558 1-2.304A7.908 7.908 0 0 1 8.94 33.93c.473-.46 1.07-.837 1.772-1.119a6.26 6.26 0 0 1 2.173-.426c.096.052.269.152.547.337.567.375 1.221.804 1.944 1.273.814.527 1.864 1.004 3.118 1.415 1.282.422 2.59.635 3.887.635 1.298 0 2.605-.213 3.887-.634 1.255-.412 2.304-.889 3.12-1.417.739-.48 1.374-.896 1.942-1.272.278-.185.45-.285.547-.337a6.265 6.265 0 0 1 2.173.426c.703.282 1.299.66 1.772 1.12a7.887 7.887 0 0 1 1.362 1.814c.418.746.755 1.522 1.001 2.304.258.818.474 1.72.644 2.68.172.974.288 1.89.345 2.723.058.847.088 1.731.088 2.63 0 1.724-.48 3.026-1.465 3.979z"/>
        </g>
    </g>
</svg>
