<?xml version="1.0" encoding="UTF-8"?>
<svg width="25px" height="26px" viewBox="0 0 25 26" version="1.1" xmlns="http://www.w3.org/2000/svg" xmlns:xlink="http://www.w3.org/1999/xlink">
    <!-- Generator: sketchtool 60 (101010) - https://sketch.com -->
    <title>CE999432-78FD-4FFB-8611-BB2EE0CBD970@3x</title>
    <desc>Created with sketchtool.</desc>
    <defs>
        <path d="M12.8,0 C19.6374442,0 25.2,5.56267238 25.2,12.4 C25.2,19.2373276 19.6373276,24.8 12.8,24.8 C5.96267238,24.8 0.4,19.2373276 0.4,12.4 C0.4,5.56267238 5.96267238,0 12.8,0 Z M12.7999996,1.63193169 C6.8624494,1.63193169 2.03193169,6.46244961 2.03193169,12.4000001 C2.03193169,18.3375506 6.8624494,23.168185 12.7999996,23.168185 C18.7375498,23.168185 23.5680676,18.3375506 23.5680676,12.4000001 C23.5680676,6.46244961 18.7375498,1.63193169 12.7999996,1.63193169 Z M13.2,3.2 C13.6525872,3.2 14.0194802,3.56649846 14.0194802,4.01859898 L14.0194802,4.01859898 L14.0194802,5.31900192 C15.0419574,5.53265625 15.949122,6.13888726 16.53786,7.0318618 C16.7868649,7.40946982 16.6822056,7.91711812 16.3041911,8.16573833 C15.9262936,8.41435853 15.4180988,8.30981175 15.1690939,7.93220373 C14.887778,7.50536284 14.4831889,7.18973446 14.0194802,7.01771174 L14.0194802,7.01771174 L14.0194802,11.6654828 C15.8332241,12.0432078 17.2,13.6524564 17.2,15.5746438 C17.2,17.4968311 15.8332241,19.1058459 14.0194802,19.4835708 L14.0194802,19.4835708 L14.0194802,20.781401 C14.0194802,21.2335015 13.6525872,21.6 13.2,21.6 C12.7474128,21.6 12.3805198,21.2335015 12.3805198,20.781401 L12.3805198,20.781401 L12.3805198,19.481115 C11.3580426,19.2674607 10.450878,18.6612297 9.86214001,17.7682551 C9.6131351,17.3906471 9.71779443,16.8829988 10.0958089,16.6343786 C10.4737064,16.3856415 10.9819012,16.4903052 11.2309061,16.8679132 C11.512222,17.2947541 11.9168111,17.6103825 12.3805198,17.7824052 L12.3805198,17.7824052 L12.3805198,13.1346341 C10.566893,12.7569092 9.2,11.1476605 9.2,9.22547317 C9.2,7.30328584 10.5667759,5.69427108 12.3805198,5.31654612 L12.3805198,5.31654612 L12.3805198,4.01859898 C12.3805198,3.56649846 12.7474128,3.2 13.2,3.2 Z M14.0194801,13.36735 L14.0194801,17.7817036 C14.9179816,17.4487677 15.5610394,16.5864321 15.5610394,15.5745268 C15.5610394,14.5626215 14.9178646,13.7002859 14.0194801,13.36735 L14.0194801,13.36735 Z M12.3805198,7.01829643 C11.4821353,7.35123234 10.8389605,8.21356791 10.8389605,9.22547321 C10.8389605,10.2373785 11.4821353,11.0997141 12.3805198,11.43265 L12.3805198,11.43265 Z" id="path-1"></path>
    </defs>
    <g id="miPOS---Cajero" stroke="none" stroke-width="1" fill="none" fill-rule="evenodd">
        <g id="02.6-Ordenes-Detail" transform="translate(-720.000000, -28.000000)">
            <g id="Header/Cajero">
                <g id="Nav/Nav-Cajero">
                    <g transform="translate(480.000000, 16.000000)">
                        <g id="item-3" transform="translate(227.000000, 0.000000)">
                            <g id="Icons-Icons/Coin" transform="translate(7.000000, 7.000000)">
                                <g id="Icons/Coin">
                                    <g id="Color" transform="translate(5.600000, 5.600000)">
                                        <mask id="mask-2" fill="white">
                                            <use xlink:href="#path-1"></use>
                                        </mask>
                                        <use id="coin" fill="#000000" fill-rule="nonzero" xlink:href="#path-1"></use>
                                    </g>
                                </g>
                            </g>
                        </g>
                    </g>
                </g>
            </g>
        </g>
    </g>
</svg>