<?xml version="1.0" encoding="UTF-8"?>
<svg width="21px" height="21px" viewBox="0 0 21 21" version="1.1" xmlns="http://www.w3.org/2000/svg" xmlns:xlink="http://www.w3.org/1999/xlink">
    <!-- Generator: sketchtool 60 (101010) - https://sketch.com -->
    <title>6164557A-4AC6-4E19-A15C-F06A24BB9423@3x</title>
    <desc>Created with sketchtool.</desc>
    <defs>
        <path d="M0.701858887,16.7009677 C1.01486353,16.3883669 1.52159484,16.3887672 1.83419923,16.7009677 C2.14680362,17.0139687 2.14680362,17.5206942 1.83419923,17.8332949 C1.52199511,18.1454955 1.52199511,18.6534217 1.83419923,18.9656222 C2.14640335,19.2778227 2.65433545,19.2778227 2.96653957,18.9656222 C3.27954422,18.6530214 3.78627553,18.6530214 4.09887992,18.9656222 C4.4114843,19.2786232 4.4114843,19.7853487 4.09887992,20.0979495 C3.63057373,20.5662503 3.01577176,20.8000004 2.40056953,20.8000004 C1.7853673,20.8000004 1.17056534,20.5662503 0.701858887,20.0975492 C-0.233952962,19.1609477 -0.233952962,17.637169 0.701858887,16.7009677 Z M19.9191289,2.66453526e-14 C20.4053696,2.66453526e-14 20.7999996,0.394630065 20.7999996,0.880870681 L20.7999996,0.880870681 L20.7999996,3.30987158 C20.7999996,5.19185179 20.0666748,6.96152099 18.7356792,8.29251659 L18.7356792,8.29251659 L17.3557953,9.67240051 C17.7508658,10.2982591 17.9657982,11.0223348 17.9657982,11.7807645 C17.9657982,12.839571 17.5535507,13.8349549 16.8048106,14.583695 L16.8048106,14.583695 L14.3132679,17.0752377 C14.1481047,17.240401 13.9239231,17.3333328 13.6904924,17.3333328 C13.4570616,17.3333328 13.23288,17.240401 13.0677168,17.0752377 L13.0677168,17.0752377 L11.5103374,15.5178584 L11.1989496,15.8292461 C11.0271798,16.0014564 10.801677,16.0873412 10.5761741,16.0873412 C10.3506712,16.0873412 10.1251683,16.0014564 9.95339849,15.8292461 L9.95339849,15.8292461 L4.97075348,10.8466011 C4.62677348,10.5026211 4.62677348,9.94502999 4.97075348,9.60104999 L4.97075348,9.60104999 L5.28214127,9.2896622 L3.7247619,7.73228284 C3.55959865,7.56711958 3.46666679,7.342938 3.46666679,7.10950727 C3.46666679,6.87607654 3.55959865,6.65189495 3.7247619,6.48673169 L3.7247619,6.48673169 L6.21630462,3.99518897 C6.9650447,3.24644889 7.96042857,2.83420142 9.01923513,2.83420142 C9.77766479,2.83420142 10.5017405,3.04913386 11.1275991,3.44420436 L11.1275991,3.44420436 L12.507483,2.06432044 C13.8380382,0.733324842 15.6081478,2.66453526e-14 17.490128,2.66453526e-14 L17.490128,2.66453526e-14 Z M4.16859052,13.2343222 C4.48162408,12.9216925 4.9884022,12.9220928 5.30103546,13.2343222 C5.61406902,13.5469518 5.61406902,14.0537241 5.30063516,14.3663537 C4.9884022,14.6785831 4.9884022,15.1865562 5.30063516,15.4987856 C5.61286813,15.8110149 6.12084714,15.8110149 6.43308011,15.4987856 C6.74611367,15.1861559 7.25289179,15.1861559 7.56552505,15.4987856 C7.87815832,15.8118155 7.87815832,16.3185878 7.56552505,16.6312174 C7.09717561,17.0995615 6.48231684,17.3333332 5.86705778,17.3333332 C5.25179872,17.3333332 4.63693996,17.0991612 4.16859052,16.6312174 C3.23269222,15.6945294 3.23269222,14.1706099 4.16859052,13.2343222 Z M16.0499049,10.9791725 L13.6909331,13.3383646 L13.6909331,13.3383646 C13.6900522,13.3394657 13.6896117,13.3394657 13.6891713,13.3399061 L12.7558887,14.2731886 L13.6904926,15.2073521 L15.5592599,13.3385848 C15.9750309,12.9223734 16.2040573,12.3691865 16.2040573,11.7812053 C16.2040573,11.5015289 16.1485625,11.2311015 16.0499049,10.9791725 L16.0499049,10.9791725 Z M8.08463158,8.97827454 L6.83908043,10.2238257 L10.5757339,13.9613602 L11.8217255,12.7153685 L8.08463158,8.97827454 Z M19.0382584,1.76174145 L17.4901281,1.76174145 C16.0785329,1.76174145 14.7515012,2.31140475 13.7530343,3.30987166 L13.7530343,3.30987166 L9.33018265,7.73272332 L13.0672765,11.4698172 L17.4901281,7.0469655 C18.4885951,6.04893902 19.0382584,4.72146692 19.0382584,3.30987166 L19.0382584,3.30987166 L19.0382584,1.76174145 Z M9.01879503,4.59594307 C8.43081381,4.59594307 7.87762699,4.82496947 7.461856,5.24074046 L7.461856,5.24074046 L5.59308872,7.10950776 L6.52725214,8.04411163 L9.82126827,4.75009545 C9.56845837,4.65099749 9.29847149,4.59594307 9.01879503,4.59594307 Z" id="path-1"></path>
    </defs>
    <g id="miPOS---Cajero" stroke="none" stroke-width="1" fill="none" fill-rule="evenodd">
        <g id="02.6-Ordenes-Detail" transform="translate(-790.000000, -31.000000)">
            <g id="Header/Cajero">
                <g id="Nav/Nav-Cajero">
                    <g transform="translate(480.000000, 16.000000)">
                        <g id="item-4" transform="translate(295.000000, 0.000000)">
                            <g id="Icons-Icons/Company" transform="translate(7.000000, 7.000000)">
                                <g id="Icons/Company">
                                    <g id="Color" transform="translate(8.000000, 8.000000)">
                                        <mask id="mask-2" fill="white">
                                            <use xlink:href="#path-1"></use>
                                        </mask>
                                        <use id="Company" fill="#020202" fill-rule="nonzero" xlink:href="#path-1"></use>
                                    </g>
                                </g>
                            </g>
                        </g>
                    </g>
                </g>
            </g>
        </g>
    </g>
</svg>