<?xml version="1.0" encoding="UTF-8"?>
<svg width="14px" height="23px" viewBox="0 0 14 23" version="1.1" xmlns="http://www.w3.org/2000/svg" xmlns:xlink="http://www.w3.org/1999/xlink">
    <!-- Generator: sketchtool 60 (101010) - https://sketch.com -->
    <title>B6023349-0BAC-4ED8-8124-DD4D73871499@3x</title>
    <desc>Created with sketchtool.</desc>
    <defs>
        <path d="M11.9750467,0.0768544922 C12.23686,-0.0723813623 12.5800778,0.00232409329 12.7418431,0.243727311 C12.8120047,0.348454994 12.8363407,0.467318508 12.820259,0.580536442 L12.820259,0.580536442 L12.8249554,0.578654582 L12.8250978,20.8623893 C12.8250978,21.7102328 12.0773716,22.4 11.158345,22.4 C10.2393184,22.4 9.49163968,21.7102328 9.49163968,20.8623893 L9.49163968,20.8623893 L9.49163968,13.9029656 C8.85662751,13.8851098 8.34509784,13.4041415 8.34509784,12.8136314 L8.34509784,12.8136314 L8.34514528,6.08256918 C8.34557223,3.6180769 9.70250395,1.37301822 11.9750467,0.0768544922 Z M5.5667146,0 C5.86396242,0 6.10500638,0.229994199 6.10509807,0.513713503 L6.10509807,0.513713503 L6.10509807,7.95057178 C6.10509807,8.78799216 5.39118069,9.46931224 4.51364865,9.46931224 L4.51364865,9.46931224 L4.41769867,9.46931224 L5.17301253,20.3042397 C5.21087908,20.8444657 5.0101772,21.3814105 4.62229722,21.77713 C4.23427971,22.1729808 3.68613163,22.4 3.11836262,22.4 C2.55050193,22.4 2.00235385,22.1729808 1.61438218,21.7770863 C1.22645636,21.381323 1.02575449,20.844422 1.06366688,20.3040209 L1.06366688,20.3040209 L1.81893489,9.46931224 L1.72316828,9.46931224 C0.845682088,9.46931224 0.13176471,8.78794841 0.13176471,7.95057178 L0.13176471,7.95057178 L0.13176471,0.513757253 C0.13176471,0.229994199 0.372808669,0 0.670102331,0 C0.967395992,0 1.20843995,0.230037949 1.20843995,0.513757253 L1.20843995,0.513757253 L1.20843995,6.35001865 L2.58007085,6.35001865 L2.58007085,0.513757253 C2.58007085,0.229994199 2.82111481,0 3.11840847,0 C3.41570213,0 3.65674609,0.230037949 3.65674609,0.513757253 L3.65674609,0.513757253 L3.65674609,6.35001865 L5.02837698,6.35001865 L5.02837698,0.513757253 C5.02837698,0.229994199 5.26942094,0 5.5667146,0 Z M11.7109564,13.9048035 L10.6056861,13.9048035 L10.6056861,20.8624765 C10.6056861,21.1436176 10.8535999,21.3722855 11.1582975,21.3722855 C11.4630901,21.3722855 11.7109564,21.1435739 11.7109564,20.8624765 L11.7109564,20.8624765 L11.7109564,13.9048035 Z M3.33868534,9.46922455 L2.89790223,9.46922455 L2.13791237,20.3724024 C2.11957506,20.6340717 2.21291197,20.8835784 2.40068604,21.07516 C2.58855179,21.2668729 2.84344041,21.3724419 3.11831671,21.3724419 C3.393193,21.3724419 3.64808163,21.2668729 3.83594738,21.07516 C4.02376729,20.8835784 4.11705836,20.6340717 4.09872105,20.3725336 L4.09872105,20.3725336 L3.33868534,9.46922455 Z M11.7108143,1.5262804 C10.2853338,2.66196085 9.45928665,4.30609353 9.45928665,6.08383825 L9.45928665,6.08383825 L9.45923921,12.8137187 C9.45923921,12.8486425 9.48978962,12.8769579 9.52774045,12.8769579 L9.52774045,12.8769579 L11.7108143,12.8769579 Z M5.02833101,7.37740173 L1.20848581,7.37740173 L1.20848581,7.95052786 C1.20848581,8.22142839 1.43935255,8.44175382 1.72321412,8.44175382 L1.72321412,8.44175382 L4.51360269,8.44175382 C4.79746426,8.44175382 5.02837685,8.22142839 5.02833101,7.95052786 L5.02833101,7.95052786 L5.02833101,7.37740173 Z" id="path-1"></path>
    </defs>
    <g id="miPOS---Cajero" stroke="none" stroke-width="1" fill="none" fill-rule="evenodd">
        <g id="02.3-Ordenes-TableCombine" transform="translate(-298.000000, -30.000000)">
            <g id="App">
                <g id="Header/Cajero">
                    <g transform="translate(0.000000, -0.000000)" id="Nav/Nav-Cajero">
                        <g transform="translate(121.000000, 16.000000)">
                            <g id="item-2" transform="translate(159.000000, 0.000000)">
                                <g id="Icons-Icons/Cutlery" transform="translate(7.000000, 7.000000)">
                                    <g id="Icons/Cutlery">
                                        <g id="Color" transform="translate(11.200000, 7.200000)">
                                            <mask id="mask-2" fill="white">
                                                <use xlink:href="#path-1"></use>
                                            </mask>
                                            <use id="Cutlery" fill="#797979" fill-rule="nonzero" xlink:href="#path-1"></use>
                                        </g>
                                    </g>
                                </g>
                            </g>
                        </g>
                    </g>
                </g>
            </g>
        </g>
    </g>
</svg>