<?xml version="1.0" encoding="utf-8"?>
<!-- Generator: Adobe Illustrator 23.0.4, SVG Export Plug-In . SVG Version: 6.00 Build 0)  -->
<svg version="1.1" id="Capa_1" xmlns="http://www.w3.org/2000/svg" xmlns:xlink="http://www.w3.org/1999/xlink" x="0px" y="0px"
	 viewBox="0 0 50 50" style="enable-background:new 0 0 50 50;" xml:space="preserve">
<style type="text/css">
	.st0{filter:url(#Adobe_OpacityMaskFilter);}
	.st1{fill-rule:evenodd;clip-rule:evenodd;fill:#FFFFFF;}
	.st2{mask:url(#mask-2_2_);}
	.st3{filter:url(#Adobe_OpacityMaskFilter_1_);}
	.st4{mask:url(#mask-4_2_);}
	.st5{fill-rule:evenodd;clip-rule:evenodd;}
	.st6{clip-path:url(#SVGID_2_);}
	.st7{fill-rule:evenodd;clip-rule:evenodd;fill:#669F44;}
	.st8{filter:url(#Adobe_OpacityMaskFilter_2_);}
	.st9{mask:url(#mask-2_1_);}
	.st10{fill:#AEE993;}
	.st11{fill:#669F44;}
	.st12{fill:#E7E7E7;}
	.st13{filter:url(#Adobe_OpacityMaskFilter_3_);}
	.st14{mask:url(#mask-2_3_);}
	.st15{fill:#DE5F16;}
	.st16{fill:#C80120;}
	.st17{fill:#E09C2F;}
	.st18{filter:url(#Adobe_OpacityMaskFilter_4_);}
	.st19{mask:url(#mask-2_4_);}
	.st20{filter:url(#Adobe_OpacityMaskFilter_5_);}
	.st21{mask:url(#mask-4_1_);fill-rule:evenodd;clip-rule:evenodd;fill:#DD6252;}
	.st22{filter:url(#Adobe_OpacityMaskFilter_6_);}
	.st23{mask:url(#mask-2_5_);}
	.st24{fill-rule:evenodd;clip-rule:evenodd;fill:#FDFDFD;}
	.st25{fill-rule:evenodd;clip-rule:evenodd;fill:#90BF5E;}
	.st26{filter:url(#Adobe_OpacityMaskFilter_7_);}
	.st27{mask:url(#mask-2_6_);}
	.st28{fill:url(#Shape_5_);}
	.st29{opacity:0.5851;fill-rule:evenodd;clip-rule:evenodd;fill:#6F6F6F;enable-background:new    ;}
	.st30{fill:#6958D2;}
	.st31{fill:#80E1DD;}
	.st32{fill:#DE643E;}
	.st33{fill:#F1F2F5;}
	.st34{filter:url(#Adobe_OpacityMaskFilter_8_);}
	.st35{mask:url(#mask-2_7_);}
</style>
<g id="Symbols">
	<g transform="translate(-11.000000, -6.000000)">
		<g id="cutlery">
			<g transform="translate(11.000000, 6.000000)">
				<path id="Shape_1_" d="M38.9,29.7V2.2l0,0c0-0.2,0-0.5-0.2-0.7c-0.3-0.5-1-0.7-1.5-0.4c-4.5,2.8-7.2,7.6-7.2,12.9c0,0,0,0,0,0
					v14.4c0,1.3,1,2.3,2.3,2.3v14.9c0,1.8,1.5,3.3,3.3,3.3s3.3-1.5,3.3-3.3L38.9,29.7C38.9,29.7,38.9,29.7,38.9,29.7z M32.4,28.6
					c-0.1,0-0.1-0.1-0.1-0.1V14c0,0,0,0,0,0c0-3.8,1.6-7.3,4.4-9.8v24.3H32.4z M36.7,45.7c0,0.6-0.5,1.1-1.1,1.1
					c-0.6,0-1.1-0.5-1.1-1.1V30.8h2.2V45.7z"/>
				<path d="M22.2,1c-0.6,0-1.1,0.5-1.1,1.1v12.5h-2.8V2.1c0-0.6-0.5-1.1-1.1-1.1s-1.1,0.5-1.1,1.1v12.5h-2.8V2.1
					c0-0.6-0.5-1.1-1.1-1.1s-1.1,0.5-1.1,1.1V18c0,1.8,1.5,3.3,3.3,3.3h0.2L13,44.5c-0.1,1.2,0.3,2.3,1.1,3.2
					c0.8,0.8,1.9,1.3,3.1,1.3c1.2,0,2.3-0.5,3.1-1.3c0.8-0.8,1.2-2,1.1-3.2l-1.5-23.2H20c1.8,0,3.3-1.5,3.3-3.3V2.1
					C23.3,1.5,22.8,1,22.2,1z M18.7,46.2c-0.4,0.4-0.9,0.6-1.5,0.6s-1.1-0.2-1.5-0.6c-0.4-0.4-0.6-0.9-0.5-1.5l1.6-23.4h0.9
					l1.6,23.4C19.2,45.2,19,45.8,18.7,46.2z M21.1,18c0,0.6-0.5,1.1-1.1,1.1h-4.4c0,0,0,0,0,0h-1.3c-0.6,0-1.1-0.5-1.1-1.1v-1.2h7.8
					V18z"/>
			</g>
		</g>
	</g>
</g>
</svg>
