<?xml version="1.0" encoding="utf-8"?>
<!-- Generator: Adobe Illustrator 23.0.4, SVG Export Plug-In . SVG Version: 6.00 Build 0)  -->
<svg version="1.1" id="Capa_1" xmlns="http://www.w3.org/2000/svg" xmlns:xlink="http://www.w3.org/1999/xlink" x="0px" y="0px"
	 viewBox="0 0 50 50" style="enable-background:new 0 0 50 50;" xml:space="preserve">
<style type="text/css">
	.st0{filter:url(#Adobe_OpacityMaskFilter);}
	.st1{fill-rule:evenodd;clip-rule:evenodd;fill:#FFFFFF;}
	.st2{mask:url(#mask-2_2_);}
	.st3{filter:url(#Adobe_OpacityMaskFilter_1_);}
	.st4{mask:url(#mask-4_2_);}
	.st5{fill-rule:evenodd;clip-rule:evenodd;}
	.st6{clip-path:url(#SVGID_2_);}
	.st7{fill-rule:evenodd;clip-rule:evenodd;fill:#669F44;}
	.st8{filter:url(#Adobe_OpacityMaskFilter_2_);}
	.st9{mask:url(#mask-2_1_);}
	.st10{fill:#AEE993;}
	.st11{fill:#669F44;}
	.st12{fill:#E7E7E7;}
	.st13{filter:url(#Adobe_OpacityMaskFilter_3_);}
	.st14{mask:url(#mask-2_3_);}
	.st15{fill:#DE5F16;}
	.st16{fill:#C80120;}
	.st17{fill:#E09C2F;}
	.st18{filter:url(#Adobe_OpacityMaskFilter_4_);}
	.st19{mask:url(#mask-2_4_);}
	.st20{filter:url(#Adobe_OpacityMaskFilter_5_);}
	.st21{mask:url(#mask-4_1_);fill-rule:evenodd;clip-rule:evenodd;fill:#DD6252;}
	.st22{filter:url(#Adobe_OpacityMaskFilter_6_);}
	.st23{mask:url(#mask-2_5_);}
	.st24{fill-rule:evenodd;clip-rule:evenodd;fill:#FDFDFD;}
	.st25{fill-rule:evenodd;clip-rule:evenodd;fill:#90BF5E;}
	.st26{filter:url(#Adobe_OpacityMaskFilter_7_);}
	.st27{mask:url(#mask-2_6_);}
	.st28{fill:url(#Shape_5_);}
	.st29{opacity:0.5851;fill-rule:evenodd;clip-rule:evenodd;fill:#6F6F6F;enable-background:new    ;}
	.st30{fill:#6958D2;}
	.st31{fill:#80E1DD;}
	.st32{fill:#DE643E;}
	.st33{fill:#F1F2F5;}
	.st34{filter:url(#Adobe_OpacityMaskFilter_8_);}
	.st35{mask:url(#mask-2_7_);}
</style>
<g id="Symbols_20_">
	<g transform="translate(-10.000000, -10.000000)">
		<g id="Color_12_">
			<g transform="translate(10.000000, 10.000000)">
				<g id="Company">
					<path d="M2.2,39.8c0.7-0.7,1.9-0.7,2.7,0c0.7,0.7,0.7,1.9,0,2.7l-0.2,0.2c-0.6,0.7-0.5,1.8,0.2,2.5c0.7,0.7,1.9,0.7,2.7,0
						c0.7-0.7,1.9-0.7,2.7,0c0.7,0.7,0.7,1.9,0,2.7c-1.1,1.1-2.6,1.7-4,1.7s-2.9-0.6-4-1.7C-0.1,45.6-0.1,42,2.2,39.8z M47.4,0.5
						c1.1,0,2.1,0.9,2.1,2.1l0,0v5.7c0,4.4-1.7,8.6-4.9,11.7l0,0l-3.3,3.3c0.9,1.5,1.4,3.2,1.4,5c0,2.5-1,4.8-2.7,6.6l0,0l-5.9,5.9
						c-0.4,0.4-0.9,0.6-1.5,0.6s-1.1-0.2-1.5-0.6l0,0l-3.7-3.7l-0.7,0.7c-0.4,0.4-0.9,0.6-1.5,0.6s-1.1-0.2-1.5-0.6l0,0L12.2,26.1
						c-0.8-0.8-0.8-2.1,0-2.9l0,0l0.7-0.7l-3.7-3.7c-0.4-0.4-0.6-0.9-0.6-1.5c0-0.5,0.2-1.1,0.6-1.5l0,0l5.9-5.9
						c1.8-1.8,4.1-2.7,6.6-2.7c1.8,0,3.5,0.5,5,1.4l0,0L30,5.4c3.1-3.1,7.3-4.9,11.7-4.9l0,0H47.4z M10.3,31.7
						c0.7-0.7,1.9-0.7,2.7,0c0.7,0.7,0.7,1.9,0,2.7c-0.7,0.7-0.7,1.9,0,2.7c0.7,0.7,1.9,0.7,2.7,0l0.2-0.2c0.7-0.6,1.8-0.5,2.5,0.2
						c0.7,0.7,0.7,1.9,0,2.7c-1.1,1.1-2.6,1.7-4,1.7s-2.9-0.6-4-1.7C8.1,37.5,8.1,33.9,10.3,31.7z M38.3,26.4l-5.6,5.6c0,0,0,0,0,0
						c0,0,0,0,0,0l0,0l-2.2,2.2l2.2,2.2l4.4-4.4c1-1,1.5-2.3,1.5-3.7C38.7,27.6,38.5,27,38.3,26.4L38.3,26.4z M19.5,21.7l-2.9,2.9
						l8.8,8.8l2.9-2.9L19.5,21.7z M45.3,4.7h-3.6c-3.3,0-6.5,1.3-8.8,3.6l0,0L22.5,18.7l8.8,8.8l10.4-10.4c2.4-2.4,3.6-5.5,3.6-8.8
						l0,0V4.7z M21.7,11.3c-1.4,0-2.7,0.5-3.7,1.5l0,0l-4.4,4.4l2.2,2.2l7.8-7.8C23,11.5,22.4,11.3,21.7,11.3z"/>
				</g>
			</g>
		</g>
	</g>
</g>
</svg>
