<?xml version="1.0" encoding="utf-8"?>
<!-- Generator: Adobe Illustrator 23.0.4, SVG Export Plug-In . SVG Version: 6.00 Build 0)  -->
<svg version="1.1" id="Capa_1" xmlns="http://www.w3.org/2000/svg" xmlns:xlink="http://www.w3.org/1999/xlink" x="0px" y="0px"
	 viewBox="0 0 50 50" style="enable-background:new 0 0 50 50;" xml:space="preserve">
<style type="text/css">
	.st0{filter:url(#Adobe_OpacityMaskFilter);}
	.st1{fill-rule:evenodd;clip-rule:evenodd;fill:#FFFFFF;}
	.st2{mask:url(#mask-2_2_);}
	.st3{filter:url(#Adobe_OpacityMaskFilter_1_);}
	.st4{mask:url(#mask-4_2_);}
	.st5{fill-rule:evenodd;clip-rule:evenodd;}
	.st6{clip-path:url(#SVGID_2_);}
	.st7{fill-rule:evenodd;clip-rule:evenodd;fill:#669F44;}
	.st8{filter:url(#Adobe_OpacityMaskFilter_2_);}
	.st9{mask:url(#mask-2_1_);}
	.st10{fill:#AEE993;}
	.st11{fill:#669F44;}
	.st12{fill:#E7E7E7;}
	.st13{filter:url(#Adobe_OpacityMaskFilter_3_);}
	.st14{mask:url(#mask-2_3_);}
	.st15{fill:#DE5F16;}
	.st16{fill:#C80120;}
	.st17{fill:#E09C2F;}
	.st18{filter:url(#Adobe_OpacityMaskFilter_4_);}
	.st19{mask:url(#mask-2_4_);}
	.st20{filter:url(#Adobe_OpacityMaskFilter_5_);}
	.st21{mask:url(#mask-4_1_);fill-rule:evenodd;clip-rule:evenodd;fill:#DD6252;}
	.st22{filter:url(#Adobe_OpacityMaskFilter_6_);}
	.st23{mask:url(#mask-2_5_);}
	.st24{fill-rule:evenodd;clip-rule:evenodd;fill:#FDFDFD;}
	.st25{fill-rule:evenodd;clip-rule:evenodd;fill:#90BF5E;}
	.st26{filter:url(#Adobe_OpacityMaskFilter_7_);}
	.st27{mask:url(#mask-2_6_);}
	.st28{fill:url(#Shape_5_);}
	.st29{opacity:0.5851;fill-rule:evenodd;clip-rule:evenodd;fill:#6F6F6F;enable-background:new    ;}
	.st30{fill:#6958D2;}
	.st31{fill:#80E1DD;}
	.st32{fill:#DE643E;}
	.st33{fill:#F1F2F5;}
	.st34{filter:url(#Adobe_OpacityMaskFilter_8_);}
	.st35{mask:url(#mask-2_7_);}
</style>
<g id="Symbols_6_">
	<g transform="translate(-10.000000, -10.000000)">
		<g id="Color_2_">
			<g transform="translate(10.000000, 10.000000)">
				<g id="Order">
					<path class="st5" d="M49.4,47.1V16.4c0-1.2-0.2-1.8-1.2-1.8c-3.5,0-4.9,2.5-6,4.6c-1.3,2.4-2.1,3.7-4.8,3.7
						c-2,0-2.6-1.2-3.7-4.4c-1.1-3.2-2.6-7.4-8.2-7.4h-0.4h-0.2c-0.1,0-0.3,0-0.4,0c-6.2,0.6-7.7,6.4-9,11.7c-0.5,2.4-1.3,4.7-2.3,7
						c-0.3,0.6-0.6,1.1-1.1,1.6c-0.3,0.2-0.6,0.5-0.8,0.8c-2,1.7-4.6,2.7-7.3,2.6V2.3c0-1-0.8-1.8-1.8-1.8S0.5,1.3,0.5,2.3v45.5
						c0,1,0.8,1.8,1.8,1.8h45.9C49.2,49.5,49.7,47.5,49.4,47.1z M11.2,46H4.1v-7.6h0.2c2.4,0,4.8-0.6,6.9-1.7V46z M23.2,46h-8.3
						V33.8c0.6-0.7,1.2-1.5,1.6-2.4c1.1-2.5,2-5.1,2.6-7.7c1.1-4.4,2-7.4,4.2-8.5V46z M35.1,46h-8.3V14.8c2,0.5,2.7,2.2,3.6,4.9
						c0.8,2.3,1.9,5.3,4.7,6.3V46z M45.8,46h-7.2V26.4c4-0.5,5.6-3.3,6.7-5.5l0.4-0.7V46z"/>
				</g>
			</g>
		</g>
	</g>
</g>
</svg>
