<?xml version="1.0" encoding="utf-8"?>
<!-- Generator: Adobe Illustrator 23.0.4, SVG Export Plug-In . SVG Version: 6.00 Build 0)  -->
<svg version="1.1" id="Capa_1" xmlns="http://www.w3.org/2000/svg" xmlns:xlink="http://www.w3.org/1999/xlink" x="0px" y="0px"
	 viewBox="0 0 50 50" style="enable-background:new 0 0 50 50;" xml:space="preserve">
<style type="text/css">
	.st0{filter:url(#Adobe_OpacityMaskFilter);}
	.st1{fill-rule:evenodd;clip-rule:evenodd;fill:#FFFFFF;}
	.st2{mask:url(#mask-2_2_);}
	.st3{filter:url(#Adobe_OpacityMaskFilter_1_);}
	.st4{mask:url(#mask-4_2_);}
	.st5{fill-rule:evenodd;clip-rule:evenodd;}
	.st6{clip-path:url(#SVGID_2_);}
	.st7{fill-rule:evenodd;clip-rule:evenodd;fill:#669F44;}
	.st8{filter:url(#Adobe_OpacityMaskFilter_2_);}
	.st9{mask:url(#mask-2_1_);}
	.st10{fill:#AEE993;}
	.st11{fill:#669F44;}
	.st12{fill:#E7E7E7;}
	.st13{filter:url(#Adobe_OpacityMaskFilter_3_);}
	.st14{mask:url(#mask-2_3_);}
	.st15{fill:#DE5F16;}
	.st16{fill:#C80120;}
	.st17{fill:#E09C2F;}
	.st18{filter:url(#Adobe_OpacityMaskFilter_4_);}
	.st19{mask:url(#mask-2_4_);}
	.st20{filter:url(#Adobe_OpacityMaskFilter_5_);}
	.st21{mask:url(#mask-4_1_);fill-rule:evenodd;clip-rule:evenodd;fill:#DD6252;}
	.st22{filter:url(#Adobe_OpacityMaskFilter_6_);}
	.st23{mask:url(#mask-2_5_);}
	.st24{fill-rule:evenodd;clip-rule:evenodd;fill:#FDFDFD;}
	.st25{fill-rule:evenodd;clip-rule:evenodd;fill:#90BF5E;}
	.st26{filter:url(#Adobe_OpacityMaskFilter_7_);}
	.st27{mask:url(#mask-2_6_);}
	.st28{fill:url(#Shape_5_);}
	.st29{opacity:0.5851;fill-rule:evenodd;clip-rule:evenodd;fill:#6F6F6F;enable-background:new    ;}
	.st30{fill:#6958D2;}
	.st31{fill:#80E1DD;}
	.st32{fill:#DE643E;}
	.st33{fill:#F1F2F5;}
	.st34{filter:url(#Adobe_OpacityMaskFilter_8_);}
	.st35{mask:url(#mask-2_7_);}
</style>
<g id="Symbols_8_">
	<g transform="translate(-11.000000, -7.000000)">
		<g id="Color_4_">
			<g transform="translate(11.000000, 7.000000)">
				<g id="Personal">
					<path d="M38.3,28.1l-6.6-2.9C31.3,25,31,24.5,31,24v-1.8c2.2-1.7,3.6-4.4,3.6-7.4v-2.5c0.7-0.4,1.2-1.2,1.2-2V10
						c0-5.2-4.3-9.5-9.6-9.5h-2.4c-5.3,0-9.6,4.3-9.6,9.5v2.2c0,0.8,0.3,1.4,0.9,1.9c0.1,0.1,0.2,0.1,0.3,0.2v0.5
						c0,3,1.4,5.7,3.6,7.4V24c0,0.5-0.3,1-0.8,1.2l-6.6,2.9c-2.2,0.9-3.5,3.1-3.5,5.4v14.9c0,0.6,0.5,1.1,1.1,1.1
						c0.6,0,1.1-0.5,1.1-1.1V33.5c0-0.1,0-0.3,0-0.4l3,3c0.5,0.5,0.7,1.1,0.7,1.8v10.5c0,0.6,0.5,1.1,1.1,1.1c0.6,0,1.1-0.5,1.1-1.1
						V37.9c0-1.3-0.5-2.4-1.4-3.3L11.5,31c0.3-0.3,0.7-0.6,1.2-0.8l6.5-2.8l4.8,4.8v16.3c0,0.6,0.5,1.1,1.1,1.1
						c0.6,0,1.1-0.5,1.1-1.1V32.1l4.8-4.8l6.5,2.8c0.4,0.2,0.8,0.5,1.2,0.8l-3.6,3.6c-0.9,0.9-1.4,2.1-1.4,3.3v10.5
						c0,0.6,0.5,1.1,1.1,1.1c0.6,0,1.1-0.5,1.1-1.1V37.9c0-0.7,0.3-1.3,0.7-1.8l3-3c0,0.1,0,0.3,0,0.4v14.9c0,0.6,0.5,1.1,1.1,1.1
						c0.6,0,1.1-0.5,1.1-1.1V33.5C41.8,31.2,40.5,29.1,38.3,28.1z M25,30l-4.2-4.2c0.3-0.5,0.5-1.2,0.5-1.8v-0.5
						c1.1,0.5,2.4,0.7,3.7,0.7c1.3,0,2.6-0.3,3.7-0.7V24c0,0.6,0.2,1.3,0.5,1.8L25,30z M25,22.1c-4,0-7.3-3.3-7.3-7.3v-0.5
						c0.7-0.3,1.4-0.7,2.1-1.3c0.5-0.4,0.5-1.1,0.1-1.6c-0.4-0.5-1.1-0.5-1.6-0.1c-0.6,0.5-1.1,0.9-1.7,1c0,0,0,0,0,0c0,0,0,0,0-0.1
						V10c0-4,3.3-7.3,7.3-7.3h2.4c4,0,7.3,3.3,7.3,7.3v0.2c0,0,0,0.1-0.1,0.1C26.7,11.7,23.3,9.2,22.2,8c-0.4-0.4-1.2-0.4-1.6,0
						c-0.4,0.4-0.4,1.1,0,1.6c3.5,3.5,8.6,3.5,11.8,3.2v2C32.3,18.8,29,22.1,25,22.1z"/>
				</g>
			</g>
		</g>
	</g>
</g>
</svg>
