<?xml version="1.0" encoding="utf-8"?>
<!-- Generator: Adobe Illustrator 23.0.4, SVG Export Plug-In . SVG Version: 6.00 Build 0)  -->
<svg version="1.1" id="Capa_1" xmlns="http://www.w3.org/2000/svg" xmlns:xlink="http://www.w3.org/1999/xlink" x="0px" y="0px"
	 viewBox="0 0 50 50" style="enable-background:new 0 0 50 50;" xml:space="preserve">
<style type="text/css">
	.st0{filter:url(#Adobe_OpacityMaskFilter);}
	.st1{fill-rule:evenodd;clip-rule:evenodd;fill:#FFFFFF;}
	.st2{mask:url(#mask-2_2_);}
	.st3{filter:url(#Adobe_OpacityMaskFilter_1_);}
	.st4{mask:url(#mask-4_2_);}
	.st5{fill-rule:evenodd;clip-rule:evenodd;}
	.st6{clip-path:url(#SVGID_2_);}
	.st7{fill-rule:evenodd;clip-rule:evenodd;fill:#669F44;}
	.st8{filter:url(#Adobe_OpacityMaskFilter_2_);}
	.st9{mask:url(#mask-2_1_);}
	.st10{fill:#AEE993;}
	.st11{fill:#669F44;}
	.st12{fill:#E7E7E7;}
	.st13{filter:url(#Adobe_OpacityMaskFilter_3_);}
	.st14{mask:url(#mask-2_3_);}
	.st15{fill:#DE5F16;}
	.st16{fill:#C80120;}
	.st17{fill:#E09C2F;}
	.st18{filter:url(#Adobe_OpacityMaskFilter_4_);}
	.st19{mask:url(#mask-2_4_);}
	.st20{filter:url(#Adobe_OpacityMaskFilter_5_);}
	.st21{mask:url(#mask-4_1_);fill-rule:evenodd;clip-rule:evenodd;fill:#DD6252;}
	.st22{filter:url(#Adobe_OpacityMaskFilter_6_);}
	.st23{mask:url(#mask-2_5_);}
	.st24{fill-rule:evenodd;clip-rule:evenodd;fill:#FDFDFD;}
	.st25{fill-rule:evenodd;clip-rule:evenodd;fill:#90BF5E;}
	.st26{filter:url(#Adobe_OpacityMaskFilter_7_);}
	.st27{mask:url(#mask-2_6_);}
	.st28{fill:url(#Shape_5_);}
	.st29{opacity:0.5851;fill-rule:evenodd;clip-rule:evenodd;fill:#6F6F6F;enable-background:new    ;}
	.st30{fill:#6958D2;}
	.st31{fill:#80E1DD;}
	.st32{fill:#DE643E;}
	.st33{fill:#F1F2F5;}
	.st34{filter:url(#Adobe_OpacityMaskFilter_8_);}
	.st35{mask:url(#mask-2_7_);}
</style>
<g id="Symbols_4_">
	<g transform="translate(-8.000000, -8.000000)">
		<g id="Color_1_">
			<g transform="translate(8.000000, 8.000000)">
				<g id="table">
					<path d="M45.4,14.8H35.2V4.6c0-2.3-1.8-4.1-4.1-4.1H18.9c-2.3,0-4.1,1.8-4.1,4.1v10.2H4.6c-2.3,0-4.1,1.8-4.1,4.1v3.1
						c0,0.6,0.5,1,1,1c1.5,0,2.3,0.3,3.1,0.7v24.8c0,0.6,0.5,1,1,1h2c0.5,0,1-0.4,1-0.9l1.7-23.6c1.5-0.2,2.5-0.6,3.3-1.1
						c0.4-0.2,0.7-0.3,1.1-0.5v3.9c-1.2,0.4-2,1.5-2,2.9s0.9,2.5,2,2.9v15.5c0,0.6,0.5,1,1,1h2c0.5,0,0.9-0.4,1-0.9l1.9-15.4h8.4
						l1.9,15.4c0.1,0.5,0.5,0.9,1,0.9h2c0.6,0,1-0.5,1-1V33c1.2-0.4,2-1.5,2-2.9s-0.9-2.5-2-2.9v-3.9c0.4,0.1,0.7,0.3,1,0.5
						c0.8,0.4,1.8,0.9,3.3,1.1l1.7,23.6c0,0.5,0.5,0.9,1,0.9h2c0.6,0,1-0.5,1-1V23.7c0.8-0.4,1.6-0.7,3.1-0.7c0.6,0,1-0.5,1-1v-3.1
						C49.5,16.6,47.7,14.8,45.4,14.8z M16.8,4.6c0-1.1,0.9-2,2-2h12.2c1.1,0,2,0.9,2,2v10.2H16.8V4.6z M6.7,47.5L6.6,24.6
						c0.5,0.2,1.1,0.3,1.7,0.3L6.7,47.5z M17,47.5h-0.1V33.2h1.9L17,47.5z M33.2,47.5H33l-1.8-14.3h1.9V47.5z M34.2,31.1H15.8
						c-0.6,0-1-0.5-1-1c0-0.6,0.5-1,1-1h18.4c0.6,0,1,0.5,1,1C35.2,30.7,34.7,31.1,34.2,31.1z M16.8,27V23c0.1,0,0.2,0,0.3,0
						c1.7,0,2.5,0.4,3.4,0.9c1,0.5,2.2,1.1,4.4,1.1c2.2,0,3.4-0.6,4.4-1.1c0.9-0.5,1.7-0.9,3.4-0.9c0.1,0,0.2,0,0.4,0V27L16.8,27
						L16.8,27z M43.4,47.5l-1.7-22.5c0.7-0.1,1.2-0.2,1.7-0.3V47.5z"/>
				</g>
			</g>
		</g>
	</g>
</g>
</svg>
