<?xml version="1.0" encoding="utf-8"?>
<!-- Generator: Adobe Illustrator 23.0.4, SVG Export Plug-In . SVG Version: 6.00 Build 0)  -->
<svg version="1.1" id="Capa_1" xmlns="http://www.w3.org/2000/svg" xmlns:xlink="http://www.w3.org/1999/xlink" x="0px" y="0px"
	 viewBox="0 0 50 50" style="enable-background:new 0 0 50 50;" xml:space="preserve">
<style type="text/css">
	.st0{filter:url(#Adobe_OpacityMaskFilter);}
	.st1{fill-rule:evenodd;clip-rule:evenodd;fill:#FFFFFF;}
	.st2{mask:url(#mask-2_2_);}
	.st3{filter:url(#Adobe_OpacityMaskFilter_1_);}
	.st4{mask:url(#mask-4_2_);}
	.st5{fill-rule:evenodd;clip-rule:evenodd;}
	.st6{clip-path:url(#SVGID_2_);}
	.st7{fill-rule:evenodd;clip-rule:evenodd;fill:#669F44;}
	.st8{filter:url(#Adobe_OpacityMaskFilter_2_);}
	.st9{mask:url(#mask-2_1_);}
	.st10{fill:#AEE993;}
	.st11{fill:#669F44;}
	.st12{fill:#E7E7E7;}
	.st13{filter:url(#Adobe_OpacityMaskFilter_3_);}
	.st14{mask:url(#mask-2_3_);}
	.st15{fill:#DE5F16;}
	.st16{fill:#C80120;}
	.st17{fill:#E09C2F;}
	.st18{filter:url(#Adobe_OpacityMaskFilter_4_);}
	.st19{mask:url(#mask-2_4_);}
	.st20{filter:url(#Adobe_OpacityMaskFilter_5_);}
	.st21{mask:url(#mask-4_1_);fill-rule:evenodd;clip-rule:evenodd;fill:#DD6252;}
	.st22{filter:url(#Adobe_OpacityMaskFilter_6_);}
	.st23{mask:url(#mask-2_5_);}
	.st24{fill-rule:evenodd;clip-rule:evenodd;fill:#FDFDFD;}
	.st25{fill-rule:evenodd;clip-rule:evenodd;fill:#90BF5E;}
	.st26{filter:url(#Adobe_OpacityMaskFilter_7_);}
	.st27{mask:url(#mask-2_6_);}
	.st28{fill:url(#Shape_11_);}
	.st29{opacity:0.5851;fill-rule:evenodd;clip-rule:evenodd;fill:#6F6F6F;enable-background:new    ;}
	.st30{fill:#6958D2;}
	.st31{fill:#80E1DD;}
	.st32{fill:#DE643E;}
	.st33{fill:#F1F2F5;}
	.st34{filter:url(#Adobe_OpacityMaskFilter_8_);}
	.st35{mask:url(#mask-2_7_);}
	.st36{filter:url(#Adobe_OpacityMaskFilter_9_);}
	.st37{mask:url(#mask-2_8_);}
	.st38{filter:url(#Adobe_OpacityMaskFilter_10_);}
	.st39{mask:url(#mask-2_9_);}
	.st40{fill-rule:evenodd;clip-rule:evenodd;fill:#DF872B;}
	.st41{filter:url(#Adobe_OpacityMaskFilter_11_);}
	.st42{mask:url(#mask-2_10_);}
	.st43{fill:#DB2C42;}
	.st44{filter:url(#Adobe_OpacityMaskFilter_12_);}
	.st45{mask:url(#mask-2_11_);}
	.st46{filter:url(#Adobe_OpacityMaskFilter_13_);}
	.st47{mask:url(#mask-4_3_);fill-rule:evenodd;clip-rule:evenodd;fill:#9D3335;}
	.st48{fill-rule:evenodd;clip-rule:evenodd;fill:#9D3335;}
	.st49{filter:url(#Adobe_OpacityMaskFilter_14_);}
	.st50{mask:url(#mask-6_2_);fill-rule:evenodd;clip-rule:evenodd;fill:#9D3335;}
	.st51{filter:url(#Adobe_OpacityMaskFilter_15_);}
	.st52{mask:url(#mask-8_2_);fill-rule:evenodd;clip-rule:evenodd;fill:#9D3335;}
	.st53{filter:url(#Adobe_OpacityMaskFilter_16_);}
	.st54{mask:url(#mask-2_12_);}
	.st55{filter:url(#Adobe_OpacityMaskFilter_17_);}
	.st56{mask:url(#mask-2_13_);}
	.st57{fill-rule:evenodd;clip-rule:evenodd;fill:#252729;}
	.st58{fill:#62A3CD;}
	.st59{fill:#FFFFFF;}
	.st60{fill-rule:evenodd;clip-rule:evenodd;fill:#DD4C12;}
	.st61{filter:url(#Adobe_OpacityMaskFilter_18_);}
	.st62{mask:url(#mask-2_14_);}
	.st63{filter:url(#Adobe_OpacityMaskFilter_19_);}
	.st64{mask:url(#mask-4_4_);fill-rule:evenodd;clip-rule:evenodd;fill:#FFFFFF;}
	.st65{fill-rule:evenodd;clip-rule:evenodd;fill:#2F5399;}
	.st66{fill:#2F5399;}
	.st67{fill-rule:evenodd;clip-rule:evenodd;fill:#6958D2;}
	.st68{filter:url(#Adobe_OpacityMaskFilter_20_);}
	.st69{mask:url(#mask-2_15_);}
	.st70{fill:#B5621C;}
	.st71{fill:#3F414E;}
	.st72{fill:#CBE0F0;}
	.st73{fill:#90AFC3;}
	.st74{fill:#DD4A27;}
	.st75{fill:#32333D;}
	.st76{fill:#79CA7B;}
	.st77{fill:#67AF63;}
	.st78{fill:#E48C2E;}
	.st79{fill:#C87121;}
	.st80{fill:#EDBC36;}
	.st81{fill:#F6DF5A;}
	.st82{filter:url(#Adobe_OpacityMaskFilter_21_);}
	.st83{mask:url(#mask-2_16_);}
	.st84{filter:url(#Adobe_OpacityMaskFilter_22_);}
	.st85{mask:url(#mask-2_17_);}
	.st86{fill:#D34539;}
	.st87{fill:#F9F9F9;}
	.st88{fill-rule:evenodd;clip-rule:evenodd;fill:#EDBA2C;}
	.st89{filter:url(#Adobe_OpacityMaskFilter_23_);}
	.st90{mask:url(#mask-2_18_);}
	.st91{fill:#7AA937;}
	.st92{fill:#9BD44E;}
	.st93{fill:#6B9531;}
	.st94{fill:#4E6C25;}
	.st95{fill:#668E2F;}
	.st96{fill:#C8F93C;}
</style>
<g id="Symbols_29_">
	<g transform="translate(-8.000000, -8.000000)">
		<g id="Color_15_">
			<g transform="translate(8.000000, 8.000000)">
				<g id="Phone">
					<path d="M6,6.4c1.6-1.6,3.6-1.6,5.2,0c1,1,2,2,2.9,2.9c0.9,1,1.9,1.9,2.8,2.9c1.7,1.7,1.7,3.6,0,5.3c-1.2,1.2-2.4,2.4-3.6,3.6
						c-0.3,0.3-0.3,0.6-0.2,1c0.8,1.9,2,3.6,3.3,5.2c2.6,3.2,5.6,6,9.1,8.3c0.8,0.5,1.6,0.8,2.4,1.2c0.4,0.2,0.7,0.2,1-0.2
						c1.2-1.2,2.4-2.4,3.6-3.6c1.6-1.6,3.6-1.6,5.2,0c1.9,1.9,3.9,3.9,5.8,5.8c1.6,1.6,1.6,3.6,0,5.3c-1.1,1.1-2.3,2.2-3.3,3.3
						c-1.5,1.7-3.4,2.3-5.6,2.1c-3.2-0.2-6.1-1.2-8.9-2.6c-6.3-3-11.6-7.2-16.1-12.6c-3.3-3.9-6-8.2-7.8-13.1
						C1,18.9,0.3,16.5,0.5,14c0.1-1.6,0.7-2.9,1.9-4C3.6,8.8,4.8,7.6,6,6.4z M25.3,10.3c3.7,0.5,7,2.2,9.6,4.8
						c2.5,2.5,4.1,5.6,4.7,9.1l0,0l-3.8,0.6c-0.5-2.7-1.7-5.1-3.6-7c-2-2-4.6-3.3-7.4-3.7l0,0L25.3,10.3z M25.8,0.5
						c6.1,0.8,11.6,3.6,15.9,7.9c4.1,4.1,6.8,9.3,7.8,15.1l0,0l-3.8,0.6c-0.8-4.9-3.2-9.4-6.7-13C35.2,7.4,30.5,5,25.3,4.3l0,0
						L25.8,0.5z"/>
				</g>
			</g>
		</g>
	</g>
</g>
</svg>
