<?xml version="1.0" encoding="utf-8"?>
<!-- Generator: Adobe Illustrator 23.0.4, SVG Export Plug-In . SVG Version: 6.00 Build 0)  -->
<svg version="1.1" id="Capa_1" xmlns="http://www.w3.org/2000/svg" xmlns:xlink="http://www.w3.org/1999/xlink" x="0px" y="0px"
	 viewBox="0 0 50 50" style="enable-background:new 0 0 50 50;" xml:space="preserve">
<style type="text/css">
	.st0{filter:url(#Adobe_OpacityMaskFilter);}
	.st1{fill-rule:evenodd;clip-rule:evenodd;fill:#FFFFFF;}
	.st2{mask:url(#mask-2_2_);}
	.st3{filter:url(#Adobe_OpacityMaskFilter_1_);}
	.st4{mask:url(#mask-4_2_);}
	.st5{fill-rule:evenodd;clip-rule:evenodd;}
	.st6{clip-path:url(#SVGID_2_);}
	.st7{fill-rule:evenodd;clip-rule:evenodd;fill:#669F44;}
	.st8{filter:url(#Adobe_OpacityMaskFilter_2_);}
	.st9{mask:url(#mask-2_1_);}
	.st10{fill:#AEE993;}
	.st11{fill:#669F44;}
	.st12{fill:#E7E7E7;}
	.st13{filter:url(#Adobe_OpacityMaskFilter_3_);}
	.st14{mask:url(#mask-2_3_);}
	.st15{fill:#DE5F16;}
	.st16{fill:#C80120;}
	.st17{fill:#E09C2F;}
	.st18{filter:url(#Adobe_OpacityMaskFilter_4_);}
	.st19{mask:url(#mask-2_4_);}
	.st20{filter:url(#Adobe_OpacityMaskFilter_5_);}
	.st21{mask:url(#mask-4_1_);fill-rule:evenodd;clip-rule:evenodd;fill:#DD6252;}
	.st22{filter:url(#Adobe_OpacityMaskFilter_6_);}
	.st23{mask:url(#mask-2_5_);}
	.st24{fill-rule:evenodd;clip-rule:evenodd;fill:#FDFDFD;}
	.st25{fill-rule:evenodd;clip-rule:evenodd;fill:#90BF5E;}
	.st26{filter:url(#Adobe_OpacityMaskFilter_7_);}
	.st27{mask:url(#mask-2_6_);}
	.st28{fill:url(#Shape_5_);}
	.st29{opacity:0.5851;fill-rule:evenodd;clip-rule:evenodd;fill:#6F6F6F;enable-background:new    ;}
	.st30{fill:#6958D2;}
	.st31{fill:#80E1DD;}
	.st32{fill:#DE643E;}
	.st33{fill:#F1F2F5;}
	.st34{filter:url(#Adobe_OpacityMaskFilter_8_);}
	.st35{mask:url(#mask-2_7_);}
</style>
<g id="Symbols_19_">
	<g transform="translate(-7.000000, -7.000000)">
		<g id="Color_11_">
			<g transform="translate(7.000000, 7.000000)">
				<g id="coin">
					<path d="M25,0.5c13.5,0,24.5,11,24.5,24.5S38.5,49.5,25,49.5S0.5,38.5,0.5,25S11.5,0.5,25,0.5z M25,3.7
						C13.3,3.7,3.7,13.3,3.7,25S13.3,46.3,25,46.3S46.3,36.7,46.3,25S36.7,3.7,25,3.7z M25.8,6.8c0.9,0,1.6,0.7,1.6,1.6l0,0V11
						c2,0.4,3.8,1.6,5,3.4c0.5,0.7,0.3,1.7-0.5,2.2c-0.7,0.5-1.8,0.3-2.2-0.5c-0.6-0.8-1.4-1.5-2.3-1.8l0,0v9.2
						c3.6,0.7,6.3,3.9,6.3,7.7c0,3.8-2.7,7-6.3,7.7l0,0v2.6c0,0.9-0.7,1.6-1.6,1.6s-1.6-0.7-1.6-1.6l0,0V39c-2-0.4-3.8-1.6-5-3.4
						c-0.5-0.7-0.3-1.7,0.5-2.2c0.7-0.5,1.8-0.3,2.2,0.5c0.6,0.8,1.4,1.5,2.3,1.8l0,0v-9.2c-3.6-0.7-6.3-3.9-6.3-7.7s2.7-7,6.3-7.7
						l0,0V8.4C24.2,7.5,24.9,6.8,25.8,6.8z M27.4,26.9v8.7c1.8-0.7,3-2.4,3-4.4S29.2,27.6,27.4,26.9L27.4,26.9z M24.2,14.4
						c-1.8,0.7-3,2.4-3,4.4s1.3,3.7,3,4.4l0,0V14.4z"/>
				</g>
			</g>
		</g>
	</g>
</g>
</svg>
