<?xml version="1.0" encoding="UTF-8"?>
<svg width="21px" height="21px" viewBox="0 0 21 21" version="1.1" xmlns="http://www.w3.org/2000/svg" xmlns:xlink="http://www.w3.org/1999/xlink">
    <!-- Generator: sketchtool 60 (101010) - https://sketch.com -->
    <title>4E13D0E5-A3DC-480B-95DD-978CB6909C83@3x</title>
    <desc>Created with sketchtool.</desc>
    <defs>
        <path d="M20.7539581,19.7975904 L20.7539581,6.76626506 C20.7539581,6.26506024 20.6679051,6.01445783 20.247764,6.01445783 C18.7747392,6.01445783 18.187554,7.09204819 17.7167935,7.95913253 C17.1751658,8.96154217 16.815768,9.52289157 15.6920171,9.52289157 C14.8517349,9.52289157 14.5935759,9.02168675 14.1177534,7.66843373 C13.641931,6.31518072 13.0091884,4.51084337 10.6300761,4.51084337 L10.468094,4.51084337 L10.376979,4.51084337 C10.3164621,4.50350124 10.2552662,4.50350124 10.1947492,4.51084337 C7.55241597,4.75643373 6.91967335,7.24240964 6.36285984,9.45773494 C6.14700556,10.4761106 5.82292436,11.469012 5.39602911,12.4198554 C5.27124622,12.6641214 5.12020055,12.8943382 4.94551636,13.106506 C4.79933581,13.1861128 4.68370378,13.3111736 4.61649019,13.4623614 C3.76246069,14.2035431 2.65327666,14.5911613 1.5185823,14.5449639 L1.5185823,0.751807229 C1.5185823,0.336595562 1.17863607,0 0.75929115,0 C0.339946227,0 0,0.336595562 0,0.751807229 L0,20.0481928 C0,20.4634044 0.339946227,20.8 0.75929115,20.8 L20.247764,20.8 C20.6679051,20.8 20.9058163,19.9329157 20.7539581,19.7975904 Z M4.55574703,19.2963852 L1.51858234,19.2963852 L1.51858234,16.0736382 L1.61475923,16.0736382 C2.63918371,16.073595 3.6483295,15.8276647 4.55574703,15.3569153 L4.55574703,19.2963852 Z M9.61768799,19.296386 L6.07432938,19.296386 L6.07432938,14.1389882 C6.33874785,13.8318948 6.56636369,13.4955181 6.75262945,13.1365785 C7.23257233,12.0877688 7.59579637,10.9903506 7.8358848,9.86371097 C8.31170724,7.97918079 8.67616699,6.73118076 9.61768799,6.25503616 L9.61768799,19.296386 Z M14.6796288,19.296386 L11.1362701,19.296386 L11.1362701,6.07460251 C11.9714904,6.27508444 12.2752068,7.00183145 12.685224,8.15961461 C13.029436,9.13195198 13.4748868,10.4000002 14.6796288,10.8510845 L14.6796288,19.296386 Z M19.2353764,19.2963852 L16.1982117,19.2963852 L16.1982117,10.9964336 C17.9091478,10.7959516 18.5672001,9.58303601 19.0582084,8.67084326 L19.2353764,8.35508423 L19.2353764,19.2963852 Z" id="path-1"></path>
    </defs>
    <g id="miPOS---Cajero" stroke="none" stroke-width="1" fill="none" fill-rule="evenodd">
        <g id="02.6-Ordenes-Detail" transform="translate(-926.000000, -31.000000)">
            <g id="Header/Cajero">
                <g id="Nav/Nav-Cajero">
                    <g transform="translate(480.000000, 16.000000)">
                        <g id="item-6" transform="translate(431.000000, 0.000000)">
                            <g id="Icons-Icons/Ordenes" transform="translate(7.000000, 7.000000)">
                                <g id="Icons/Ordenes">
                                    <g id="Color" transform="translate(8.000000, 8.000000)">
                                        <mask id="mask-2" fill="white">
                                            <use xlink:href="#path-1"></use>
                                        </mask>
                                        <use id="Order" fill="#020202" xlink:href="#path-1"></use>
                                    </g>
                                </g>
                            </g>
                        </g>
                    </g>
                </g>
            </g>
        </g>
    </g>
</svg>