<?xml version="1.0" encoding="UTF-8"?>
<svg width="18px" height="26px" viewBox="0 0 18 26" version="1.1" xmlns="http://www.w3.org/2000/svg" xmlns:xlink="http://www.w3.org/1999/xlink">
    <!-- Generator: sketchtool 60 (101010) - https://sketch.com -->
    <title>61B74F38-CF54-452B-B8F5-3D21E5EF0FB1@3x</title>
    <desc>Created with sketchtool.</desc>
    <defs>
        <path d="M15.9750741,13.9711711 L12.6491717,12.5049516 C12.4142019,12.4014004 12.2624904,12.1696968 12.2624904,11.9147548 L12.2624904,11.0088326 C13.3797225,10.125846 14.0978341,8.76612998 14.0978341,7.24238208 L14.0978341,5.9671421 C14.4658949,5.76541393 14.7095645,5.37558275 14.7095645,4.93897182 L14.7095645,4.81520989 C14.7095645,2.16011891 12.5318013,0 9.85502304,0 L8.63156229,0 C5.95478403,0 3.77702085,2.16011891 3.77702085,4.81520989 L3.77702085,5.93815077 C3.77702085,6.32192633 3.94353727,6.66959518 4.23375816,6.89206389 C4.28298047,6.92976019 4.33479745,6.96291476 4.38875122,6.99160331 L4.38875122,7.24230639 C4.38875122,8.76605429 5.10678653,10.1257703 6.22394234,11.0086812 L6.22394234,11.9146791 C6.22394234,12.1696211 6.07215445,12.4013247 5.83726098,12.5048759 L2.51135864,13.9710954 C1.42213364,14.4512311 0.718292665,15.5254999 0.718292665,16.7077859 L0.718292665,24.232209 C0.718292665,24.5457392 0.974553967,24.8 1.29064519,24.8 C1.6067364,24.8 1.86299771,24.5457392 1.86299771,24.232209 L1.86299771,16.7078616 C1.86299771,16.6420824 1.86772915,16.57706 1.87459738,16.5125676 L3.40712849,18.0326821 C3.64560871,18.2693058 3.77702085,18.5838201 3.77702085,18.9184694 L3.77702085,24.2322847 C3.77702085,24.5458149 4.03328215,24.8 4.34937337,24.8 C4.66546458,24.8 4.92172589,24.5458149 4.92172589,24.2322847 L4.92172589,18.9184694 C4.92172589,18.2805844 4.67134074,17.6809257 4.21658758,17.2298569 L2.38956202,15.4175583 C2.55417061,15.248152 2.75167038,15.1077371 2.97633783,15.0086519 L6.24614962,13.5671848 L8.67101646,15.9724054 L8.67101646,24.232209 C8.67101646,24.5457392 8.92727776,24.8 9.24336898,24.8 C9.5594602,24.8 9.8157215,24.5457392 9.8157215,24.232209 L9.8157215,15.9724811 L12.2405883,13.5672605 L15.5103238,15.0086519 C15.7349913,15.1077371 15.932491,15.248152 16.0970996,15.417634 L14.2700741,17.2298569 C13.8153209,17.6809257 13.5649358,18.2805844 13.5649358,18.9184694 L13.5649358,24.2322847 C13.5649358,24.5458149 13.8211971,24.8 14.1372883,24.8 C14.4533795,24.8 14.7096408,24.5458149 14.7096408,24.2322847 L14.7096408,18.9184694 C14.7096408,18.5838958 14.8409766,18.2693058 15.0795332,18.0326821 L16.6119879,16.5126433 C16.6188562,16.5771357 16.6235876,16.6420067 16.6235876,16.7077859 L16.6235876,24.232209 C16.6235876,24.5457392 16.8798489,24.8 17.1959401,24.8 C17.5120314,24.8 17.7682927,24.5457392 17.7682927,24.232209 L17.7682927,16.7078616 C17.7680637,15.5255756 17.0642991,14.4513068 15.9750741,13.9711711 Z M9.24313988,14.9344704 L7.11543851,12.823932 C7.27722348,12.5539266 7.36857094,12.2415318 7.36857094,11.9147549 L7.36857094,11.6837326 C7.94573121,11.9242925 8.57905834,12.057592 9.24321619,12.057592 C9.90737404,12.057592 10.5406249,11.9243682 11.1177088,11.6838083 L11.1177088,11.9147549 C11.1177088,12.2416075 11.2090563,12.5539266 11.3709176,12.8240077 L9.24313988,14.9344704 Z M9.24321637,10.9220855 C7.19762847,10.9220855 5.53337997,9.27139647 5.53337997,7.24238198 L5.53337997,6.98706149 C5.89052794,6.84664657 6.23912878,6.62319383 6.57284846,6.317763 C6.80507095,6.10513469 6.81964687,5.74596015 6.60520546,5.51554343 C6.39084036,5.28520241 6.02880831,5.27074459 5.79643319,5.4833729 C5.51018062,5.74550597 5.22415698,5.91483653 4.94652786,5.98674713 C4.93981225,5.98848812 4.93485186,5.98924508 4.93134144,5.98954786 C4.9272205,5.98159984 4.9216496,5.96494686 4.9216496,5.9382264 L4.9216496,4.81528553 C4.9216496,2.78627105 6.5858981,1.13550634 8.631486,1.13550634 L9.85494674,1.13550634 C11.900611,1.13550634 13.5647831,2.78627105 13.5647831,4.81528553 L13.5647831,4.93904747 C13.5647831,4.95744144 13.5536413,4.97341317 13.5389891,4.97628959 C10.1116659,5.64770755 8.39262421,4.382308 7.81264033,3.80702316 C7.58911759,3.58531141 7.22670398,3.58531141 7.00325755,3.80702316 C6.77973482,4.02873491 6.77973482,4.38821223 7.00325755,4.60984829 C8.78060291,6.37279353 11.374123,6.40458559 12.9530528,6.21640689 L12.9530528,7.24230629 C12.9530528,9.27132077 11.2888043,10.9220855 9.24321637,10.9220855 Z" id="path-1"></path>
    </defs>
    <g id="miPOS---Cajero" stroke="none" stroke-width="1" fill="none" fill-rule="evenodd">
        <g id="02.6-Ordenes-Detail" transform="translate(-859.000000, -28.000000)">
            <g id="Header/Cajero">
                <g id="Nav/Nav-Cajero">
                    <g transform="translate(480.000000, 16.000000)">
                        <g id="item-5" transform="translate(363.000000, 0.000000)">
                            <g id="Icons-Icons/Personal" transform="translate(7.000000, 7.000000)">
                                <g id="Icons/Personal">
                                    <g id="Color" transform="translate(8.800000, 5.600000)">
                                        <mask id="mask-2" fill="white">
                                            <use xlink:href="#path-1"></use>
                                        </mask>
                                        <use id="Personal" fill="#000000" fill-rule="nonzero" xlink:href="#path-1"></use>
                                    </g>
                                </g>
                            </g>
                        </g>
                    </g>
                </g>
            </g>
        </g>
    </g>
</svg>