<?xml version="1.0" encoding="UTF-8"?>
<svg width="21px" height="22px" viewBox="0 0 21 22" version="1.1" xmlns="http://www.w3.org/2000/svg" xmlns:xlink="http://www.w3.org/1999/xlink">
    <!-- Generator: sketchtool 60 (101010) - https://sketch.com -->
    <title>F1D8E957-8ABB-4904-B36E-EF6906858EF9@3x</title>
    <desc>Created with sketchtool.</desc>
    <defs>
        <path d="M19.2445887,6.01480139 L14.948336,6.01480139 L14.948336,1.71853194 C14.948336,0.770715278 14.1771807,0 13.2298108,0 L8.07427535,0 C7.12690544,0 6.35575012,0.770715278 6.35575012,1.71853194 L6.35575012,6.01484167 L2.05949745,6.01484167 C1.11212754,6.01480139 0.340972222,6.78555694 0.340972222,7.73333333 L0.340972222,9.02222222 C0.340972222,9.2597 0.533136749,9.45186528 0.770613599,9.45186528 C1.39072784,9.45186528 1.7273682,9.58570833 2.05949745,9.75314306 L2.05949745,20.1925792 C2.05949745,20.4300569 2.25166198,20.6222222 2.48913883,20.6222222 L3.34838131,20.6222222 C3.57325126,20.6222222 3.76038109,20.4485042 3.77717686,20.2240764 L4.50628234,10.2801778 C5.14842844,10.2128736 5.55422547,10.0167611 5.90685604,9.8328125 C6.05455407,9.7556 6.19987572,9.68632222 6.35579039,9.62505972 L6.35579039,11.2495028 C5.85675068,11.42745 5.49650764,11.8998681 5.49650764,12.4592458 C5.49650764,13.0186236 5.85675068,13.4910417 6.35575012,13.6689889 L6.35575012,20.1925792 C6.35575012,20.4300569 6.54791464,20.6222222 6.78539149,20.6222222 L7.64463397,20.6222222 C7.86112618,20.6222222 8.04406713,20.4607083 8.07089203,20.2458667 L8.88309024,13.7481347 L12.4209153,13.7481347 L13.2331135,20.2458667 C13.2599787,20.4606681 13.4428794,20.6222222 13.6593716,20.6222222 L14.5186946,20.6222222 C14.7561715,20.6222222 14.948336,20.4300569 14.948336,20.1925792 L14.948336,13.6689889 C15.4473354,13.4910819 15.8075785,13.0186236 15.8075785,12.4592458 C15.8075785,11.8998681 15.4473354,11.42745 14.948336,11.2495028 L14.948336,9.62904722 C15.1005451,9.68946389 15.2432487,9.75729167 15.3880468,9.8328125 C15.7425704,10.017325 16.1508646,10.2140014 16.7978843,10.2805806 L17.5269898,20.2240361 C17.5437856,20.4485042 17.7309154,20.6222222 17.9557854,20.6222222 L18.8150278,20.6222222 C19.0525047,20.6222222 19.2446692,20.4300167 19.2446692,20.1925389 L19.2446692,9.75205556 C19.5767985,9.58510417 19.9140027,9.45186528 20.5335531,9.45186528 C20.7710299,9.45186528 20.9631944,9.2597 20.9631944,9.02222222 L20.9631944,7.73333333 C20.9631944,6.78555694 20.1919586,6.01480139 19.2445887,6.01480139 Z M7.21503296,1.71853191 C7.21503296,1.24486524 7.60020783,0.859286075 8.0742754,0.859286075 L13.2298106,0.859286075 C13.7039184,0.859286075 14.089053,1.24486524 14.089053,1.71853191 L14.089053,6.01484163 L7.21503296,6.01484163 L7.21503296,1.71853191 Z M2.94894818,19.7629768 L2.92067329,10.1433139 C3.12206139,10.2092889 3.36618405,10.2545612 3.64393853,10.2819098 L2.94894818,19.7629768 Z M7.26537999,19.7629768 L7.21503296,19.7629768 L7.21503296,13.748135 L8.01728261,13.748135 L7.26537999,19.7629768 Z M14.0890539,19.7629761 L14.0387068,19.7629761 L13.2868042,13.7481744 L14.0890539,13.7481744 L14.0890539,19.7629761 Z M14.5186944,12.8888895 L6.78539155,12.8888895 C6.54876054,12.8888895 6.35575019,12.6963214 6.35575019,12.4592464 C6.35575019,12.2222117 6.54876054,12.0296034 6.78539155,12.0296034 L14.5186944,12.0296034 C14.7553254,12.0296034 14.9483358,12.2221715 14.9483358,12.4592464 C14.9483358,12.6963214 14.7553254,12.8888895 14.5186944,12.8888895 Z M7.21503296,11.1703569 L7.21503296,9.46084717 C7.26360777,9.4589944 7.30102568,9.45182495 7.35350742,9.45182495 C8.07177825,9.45182495 8.40994917,9.62844301 8.8010046,9.83277218 C9.23064599,10.0568375 9.71732049,10.3110708 10.6453975,10.3110708 C11.5743202,10.3110708 12.0609948,10.0567972 12.4906361,9.83277218 C12.8824971,9.62844301 13.220668,9.45182495 13.9381333,9.45182495 C13.9952873,9.45182495 14.0365718,9.45947773 14.0891744,9.46161245 L14.0891744,11.1703166 L7.21503296,11.1703166 L7.21503296,11.1703569 Z M18.3853459,19.7629761 L17.6613959,10.281507 C17.9398351,10.2537153 18.1835953,10.2075167 18.3853459,10.1410583 L18.3853459,19.7629761 Z" id="path-1"></path>
    </defs>
    <g id="miPOS---Cajero" stroke="none" stroke-width="1" fill="none" fill-rule="evenodd">
        <g id="02.6-Ordenes-Detail" transform="translate(-500.000000, -29.000000)">
            <g id="Header/Cajero">
                <g id="Nav/Nav-Cajero">
                    <g transform="translate(480.000000, 16.000000)">
                        <g id="item-Active">
                            <g id="icon-molde" transform="translate(11.000000, 5.000000)">
                                <g id="Icons-Icons/Table" transform="translate(3.000000, 3.000000)">
                                    <g id="Icons/Table">
                                        <g id="Color" transform="translate(5.688889, 5.688889)">
                                            <mask id="mask-2" fill="white">
                                                <use xlink:href="#path-1"></use>
                                            </mask>
                                            <use id="table" fill="#000000" fill-rule="nonzero" xlink:href="#path-1"></use>
                                        </g>
                                    </g>
                                </g>
                            </g>
                        </g>
                    </g>
                </g>
            </g>
        </g>
    </g>
</svg>